<svg xmlns="http://www.w3.org/2000/svg" xmlns:svg="http://www.w3.org/2000/svg" viewBox="8 8.56 16 23.43">
 <g class="layer">
  <title>Layer 1</title>
  <g id="icomoon-ignore"/>
  <path d="m16.97,9.32c0.13,-0.03 0.28,-0.03 0.42,0c0.16,0.04 0.32,0.2 0.49,0.24c0.16,0.05 0.28,-0.02 0.51,0.03c0.38,0.09 1.18,0.42 1.64,0.64c0.37,0.18 0.7,0.37 0.94,0.55c0.18,0.13 0.27,0.2 0.41,0.41c0.2,0.29 0.4,1.04 0.62,1.34c0.15,0.22 0.32,0.28 0.47,0.44c0.14,0.16 0.28,0.31 0.39,0.52c0.14,0.24 0.24,0.47 0.34,0.88c0.14,0.62 0.4,2.15 0.3,2.7c-0.06,0.31 -0.23,0.45 -0.38,0.59c-0.13,0.11 -0.2,0.16 -0.42,0.21c-0.41,0.08 -1.22,0.03 -2.01,0c-0.99,-0.04 -2.83,-0.09 -3.54,-0.27c-0.4,-0.11 -0.59,-0.25 -0.74,-0.41c-0.08,-0.08 -0.12,-0.12 -0.15,-0.2c-0.11,0.3 -0.27,0.45 -0.42,0.61c-0.15,0.15 -0.19,0.2 -0.51,0.27c-0.72,0.14 -3.37,0.11 -4.4,0.03c-0.66,-0.05 -1.05,-0.11 -1.45,-0.27c-0.34,-0.15 -0.65,-0.38 -0.84,-0.59c-0.15,-0.18 -0.22,-0.36 -0.27,-0.58c-0.05,-0.25 0,-0.61 0,-0.85c0.01,-0.19 -0.02,-0.28 0.03,-0.48c0.07,-0.3 0.25,-0.78 0.46,-1.16c0.22,-0.4 0.61,-0.9 0.86,-1.16c0.18,-0.19 0.34,-0.19 0.47,-0.38c0.17,-0.24 0.19,-0.65 0.4,-1c0.24,-0.43 0.69,-1.07 1.04,-1.35c0.26,-0.21 0.46,-0.26 0.79,-0.34c0.43,-0.09 1.26,-0.02 1.64,-0.12c0.25,-0.06 0.35,-0.23 0.54,-0.27c0.19,-0.04 0.4,-0.03 0.58,0.03c0.17,0.06 0.32,0.18 0.47,0.32c0.15,0.14 0.31,0.36 0.42,0.55c0,0 0,0 0,-0.01c0.1,-0.29 0.33,-0.62 0.5,-0.77c0.13,-0.11 0.26,-0.12 0.4,-0.15z" fill="rgb(200, 61, 30)" id="svg_1" stroke-width="2px"/>
  <path d="m16.53,8.56l-1.06,0c-4.17,0.27 -7.47,3.63 -7.47,7.74l0,7.93c0,4.29 3.58,7.76 8,7.76c4.42,0 8,-3.47 8,-7.76l0,-7.93c0,-4.11 -3.3,-7.47 -7.47,-7.74l0,0zm6.4,7.74l0,0.77l-6.4,0l0,-7.44c3.58,0.26 6.4,3.15 6.4,6.67zm-13.86,0c0,-3.52 2.82,-6.41 6.4,-6.67l0,7.44l-6.4,0l0,-0.77zm6.93,14.63c-3.82,0 -6.93,-3.01 -6.93,-6.7l0,-6.1l13.86,0l0,6.1c0,3.69 -3.11,6.7 -6.93,6.7l0,0z" fill="#ffffff" id="svg_2"/>
  <path d="m14.75,8.68c0.18,-0.02 0.44,0 0.61,0.06c0.15,0.06 0.28,0.17 0.38,0.29c0.1,0.12 0.16,0.2 0.21,0.43c0.08,0.41 -0.04,1.45 0,2.09c0.04,0.58 0.18,1.04 0.21,1.6c0.04,0.62 0.05,1.36 0,1.98c-0.05,0.57 -0.13,1.24 -0.27,1.63c-0.1,0.28 -0.23,0.46 -0.38,0.59c-0.13,0.12 -0.28,0.18 -0.42,0.22c-0.15,0.03 -0.32,0.03 -0.46,0c-0.14,-0.03 -0.23,-0.16 -0.39,-0.19c-0.21,-0.03 -0.56,0.07 -0.79,0.06c-0.2,0 -0.28,-0.1 -0.52,-0.09c-0.38,0.03 -1.12,0.38 -1.66,0.46c-0.51,0.07 -1.11,0.06 -1.49,0c-0.28,-0.05 -0.47,-0.14 -0.66,-0.24c-0.19,-0.11 -0.36,-0.24 -0.48,-0.38c-0.1,-0.13 -0.17,-0.25 -0.21,-0.43c-0.05,-0.23 -0.06,-0.48 0,-0.91c0.11,-0.71 0.58,-2.39 0.88,-3.15c0.22,-0.54 0.46,-0.89 0.67,-1.18c0.15,-0.22 0.21,-0.29 0.44,-0.47c0.35,-0.29 1.02,-0.79 1.61,-1.06c0.59,-0.29 1.58,-0.36 1.95,-0.61c0.24,-0.16 0.24,-0.43 0.38,-0.54c0.12,-0.1 0.24,-0.14 0.39,-0.16z" fill="none" id="svg_3" stroke-width="2px"/>
 </g>
</svg>