<?xml version="1.0" encoding="utf-8"?>
<svg viewBox="0 0 32 32" xmlns="http://www.w3.org/2000/svg">
  <g id="icomoon-ignore"/>
  <path stroke-width="0" d="M 16.966 9.32 C 17.102 9.295 17.246 9.285 17.39 9.32 C 17.549 9.359 17.707 9.518 17.875 9.563 C 18.04 9.607 18.157 9.537 18.39 9.593 C 18.772 9.684 19.573 10.013 20.027 10.23 C 20.402 10.409 20.731 10.597 20.967 10.775 C 21.15 10.914 21.237 10.978 21.376 11.185 C 21.578 11.485 21.784 12.227 21.998 12.533 C 22.151 12.753 22.324 12.814 22.467 12.973 C 22.612 13.132 22.747 13.279 22.861 13.488 C 22.995 13.731 23.102 13.957 23.195 14.367 C 23.338 14.994 23.598 16.52 23.498 17.065 C 23.44 17.382 23.267 17.521 23.119 17.656 C 22.993 17.772 22.92 17.823 22.695 17.868 C 22.294 17.949 21.482 17.9 20.694 17.868 C 19.703 17.828 17.855 17.783 17.148 17.596 C 16.749 17.49 16.564 17.346 16.405 17.186 C 16.279 17.06 16.251 17.024 16.193 16.762 C 16.061 16.175 16.011 14.157 15.981 13.185 C 15.957 12.439 15.96 11.86 15.981 11.336 C 15.997 10.911 15.964 10.563 16.072 10.245 C 16.171 9.948 16.398 9.621 16.572 9.472 C 16.699 9.363 16.829 9.346 16.966 9.32 Z" style="stroke-width: 2px; fill: rgb(200, 61, 30);"/>
  <path d="M 16.533 8.562 L 15.467 8.561 C 11.3 8.829 8.003 12.187 8.003 16.3 L 8.003 24.227 C 8.003 28.515 11.583 31.992 16 31.992 C 20.417 31.992 23.997 28.515 23.997 24.227 L 23.997 16.3 C 23.997 12.186 20.7 8.828 16.533 8.561 L 16.533 8.562 Z M 22.931 16.301 L 22.931 17.066 L 16.533 17.066 L 16.533 9.628 C 20.105 9.893 22.931 12.781 22.931 16.301 Z M 9.069 16.301 C 9.069 12.781 11.894 9.893 15.467 9.628 L 15.467 17.066 L 9.069 17.066 L 9.069 16.301 Z M 16 30.927 C 12.179 30.927 9.069 27.922 9.069 24.228 L 9.069 18.132 L 22.93 18.132 L 22.93 24.228 C 22.93 27.922 19.821 30.927 15.999 30.927 L 16 30.927 Z" style=""/>
  <path d="M 14.753 8.684 C 14.928 8.662 15.19 8.679 15.359 8.744 C 15.512 8.803 15.64 8.914 15.738 9.032 C 15.837 9.151 15.905 9.229 15.95 9.457 C 16.033 9.87 15.909 10.906 15.95 11.548 C 15.987 12.128 16.126 12.585 16.162 13.155 C 16.202 13.771 16.213 14.506 16.162 15.125 C 16.115 15.703 16.032 16.373 15.89 16.762 C 15.789 17.038 15.658 17.218 15.511 17.353 C 15.385 17.469 15.234 17.53 15.086 17.565 C 14.941 17.6 14.774 17.596 14.632 17.565 C 14.492 17.535 14.402 17.41 14.238 17.383 C 14.029 17.349 13.68 17.454 13.449 17.444 C 13.254 17.436 13.172 17.336 12.934 17.353 C 12.551 17.381 11.807 17.734 11.267 17.808 C 10.758 17.877 10.164 17.87 9.782 17.808 C 9.497 17.761 9.309 17.674 9.115 17.565 C 8.933 17.463 8.76 17.328 8.645 17.186 C 8.54 17.058 8.473 16.944 8.433 16.762 C 8.381 16.526 8.367 16.278 8.433 15.853 C 8.543 15.143 9.005 13.463 9.312 12.7 C 9.527 12.164 9.771 11.807 9.979 11.518 C 10.133 11.304 10.194 11.233 10.418 11.048 C 10.766 10.762 11.44 10.264 12.025 9.987 C 12.624 9.704 13.605 9.634 13.98 9.381 C 14.219 9.22 14.216 8.951 14.359 8.835 C 14.478 8.739 14.602 8.703 14.753 8.684 Z" style="stroke-width: 2px; paint-order: fill markers; fill: none;" stroke-width="0"/>
</svg>